<?xml version="1.0" encoding="utf-8"?>
<!-- Generator: Adobe Illustrator 19.1.0, SVG Export Plug-In . SVG Version: 6.00 Build 0)  -->
<svg version="1.1" id="Layer_1" xmlns="http://www.w3.org/2000/svg" xmlns:xlink="http://www.w3.org/1999/xlink" x="0px" y="0px"
	 viewBox="0 0 376 111.6" style="enable-background:new 0 0 376 111.6;" xml:space="preserve">
<style type="text/css">
	.st0{fill:#FFFFFF;}
</style>
<path class="st0" d="M8.7,51.3V13.4h7.4v37.9H8.7z"/>
<path class="st0" d="M27.1,27.4h0.1c1.8-2.4,5.2-3.8,8.3-3.8c3.3,0,6.2,1.4,7.8,3.8c2.2-2.2,5.6-3.8,8.8-3.8c6-0.1,9.1,3.7,9.2,9.9
	v17.8h-7V34.8c0-3.1-1.1-6.4-4.5-6.4c-3.4,0-5.5,2.1-5.5,6.8v16.2h-7V34.8c0-3.8-1.6-6.4-4.6-6.4c-3.3,0-5.4,2.3-5.4,6.9v16h-7V24.2
	h7V27.4z"/>
<path class="st0" d="M78.9,27.9c4,0,6,4.7,6,9.3c0,4.8-1.6,10.4-6.3,10.4c-3.8,0-6.5-3.8-6.5-9.5C72.1,31.9,74.5,27.9,78.9,27.9z
	 M72.1,24.2h-7v40.7h7V48c2,2.4,4.7,4,7.9,4c7.5,0,12.3-7.6,12.3-14.8c0-6-3.4-13.6-11.7-13.6c-3.2,0-6.6,1.6-8.4,4.4h-0.1V24.2z"/>
<path class="st0" d="M102.4,34.5c-0.1-3.6,1.7-6.9,5.8-6.9c3.5,0,4.9,2.8,4.6,6.9H102.4z M119.4,38.4c0.5-8.1-2.9-14.8-11.1-14.8
	c-7.5,0-13.5,5.3-13.5,13.7c0,8.9,6,14.7,13.9,14.7c3,0,6.8-0.9,10.3-3l-2-3.8c-1.7,1.2-4.5,2.2-7.1,2.2c-4.4,0-7.9-3.8-7.7-8.9
	H119.4z"/>
<path class="st0" d="M129.7,29h0.1l1.4-2.1c0.8-1.1,2.4-3.3,4.5-3.3c1.6,0,3.3,0.9,4.8,2.4l-2.6,5c-1.2-0.6-1.9-0.9-3.3-0.9
	c-2.4,0-4.8,2-4.8,7.9v13.4h-7V24.2h7V29z"/>
<path class="st0" d="M149.8,24.2v27.1h-7V24.2H149.8z M142.1,16.1c0-2.1,1.7-4.2,4.1-4.2c2.4,0,4.3,2.1,4.3,4.2
	c0,2.3-1.6,4.5-4.2,4.5C143.8,20.6,142.1,18.4,142.1,16.1z"/>
<path class="st0" d="M168.9,35.6c0.5,8-3.1,11.5-5.9,11.5c-1.7,0-3.2-1.6-3.2-4c0-3.1,1.7-5.1,5.2-6.2L168.9,35.6z M168.8,47.4
	c0,1.5,0.2,3,0.7,4h7.4c-0.8-1.9-1.1-4.4-1.1-6.6V33.7c0-8.5-6-10.1-10.8-10.1c-3.6,0-6.9,0.9-10.1,3.7l2.3,3.4c1.8-1.6,4-2.8,7-2.8
	c2.3,0,4.4,1.6,4.8,4.1l-6.2,1.9c-6.1,1.8-9.8,4.7-9.8,9.9c0,5,3.4,8.2,7.5,8.2c2.4,0,4.8-1.7,6.8-3.3L168.8,47.4z"/>
<path class="st0" d="M180.2,51.3V11.5h7v39.8H180.2z"/>
<path class="st0" d="M233.5,20.3c-1.8-1-4.8-2.1-7.7-2.1c-7.6,0-13.1,5.5-13.1,14.1c0,9,6.1,14.3,13.3,14.3c2.9,0,5.5-0.8,7.4-1.9
	l2.1,4.7c-2.3,1.4-6.2,2.6-9.8,2.6c-12.8,0-20.9-8.7-20.9-19.8c0-10.4,8-19.4,21-19.4c3.9,0,7.4,1.4,10,2.9L233.5,20.3z"/>
<path class="st0" d="M249.5,48c-5,0-6.4-5.7-6.4-10.5c0-4.5,1.6-9.9,6.4-9.9c4.9,0,6.4,5.4,6.4,9.9C255.9,42.2,254.6,48,249.5,48z
	 M249.5,52c8.3,0,13.9-6.1,13.9-14.5c0-8.8-6.7-13.9-13.9-13.9c-7.1,0-13.8,5.1-13.8,13.9C235.6,45.8,241.2,52,249.5,52z"/>
<path class="st0" d="M266.4,51.3V11.5h7v39.8H266.4z"/>
<path class="st0" d="M277.8,51.3V11.5h7v39.8H277.8z"/>
<path class="st0" d="M295.3,34.5c-0.1-3.6,1.7-6.9,5.7-6.9c3.5,0,4.9,2.8,4.6,6.9H295.3z M312.3,38.4c0.5-8.1-2.9-14.8-11.1-14.8
	c-7.5,0-13.5,5.3-13.5,13.7c0,8.9,6,14.7,13.9,14.7c3,0,6.8-0.9,10.3-3l-2-3.8c-1.7,1.2-4.5,2.2-7.1,2.2c-4.4,0-7.9-3.8-7.7-8.9
	H312.3z"/>
<path class="st0" d="M352.6,34.5c-0.1-3.6,1.7-6.9,5.8-6.9c3.5,0,4.9,2.8,4.6,6.9H352.6z M369.6,38.4c0.5-8.1-2.9-14.8-11.1-14.8
	c-7.5,0-13.5,5.3-13.5,13.7c0,8.9,6,14.7,13.9,14.7c3,0,6.8-0.9,10.3-3l-2-3.8c-1.7,1.2-4.5,2.2-7.1,2.2c-4.4,0-7.9-3.8-7.7-8.9
	H369.6z"/>
<path class="st0" d="M328.7,27.9c4.2,0,6.4,4.4,6.4,9.1c0,5.4-2,10.6-6.7,10.6c-4.1,0-6.1-5.1-6.1-10.4
	C322.3,32,324.2,27.9,328.7,27.9z M342.1,24.2h-7v3.3H335c-1.5-2.4-4.6-4-7.9-4c-7.2,0-12.2,6.8-12.2,13.9c0,8.7,4.6,14.5,11.6,14.5
	c4,0,6.8-2.3,8.5-4.6h0.1V51c0,6.3-3.6,9.2-8.2,9.2c-3.6,0-6.6-0.7-9.2-2.3l-1.4,4.4c3.1,1.6,7.1,2.6,11.1,2.6c7.9,0,14.7-4,14.7-16
	V24.2z"/>
<path class="st0" d="M8.7,67.6h7.5v32.8H32v5.1H8.7V67.6z"/>
<path class="st0" d="M73.2,81.6c2.5-2.6,6-3.8,9.5-3.8c6.5,0,9.6,3.5,9.6,10.3v17.5h-7.1V88.9c0-3.8-1.7-6.3-5.6-6.3
	c-3.6,0-6.4,2.3-6.4,6.8v16.2h-7.1V78.4h7V81.6z"/>
<path class="st0" d="M110.5,82.1c4.4,0,6.7,4.4,6.7,9.1c0,5.4-2.1,10.6-7.1,10.6c-4.3,0-6.4-5.1-6.4-10.4
	C103.8,86.2,105.8,82.1,110.5,82.1z M117.3,105.5h7.1V65.7h-7.1v15.9h-0.1c-1.7-2.4-4.9-3.8-8.5-3.8c-7.4,0-12.7,6.8-12.7,13.9
	c0,8.7,4.8,14.5,12.1,14.5c4.3,0,7.2-2.3,9-4.6h0.1V105.5z"/>
<path class="st0" d="M142.6,102.2c-5.3,0-6.7-5.7-6.7-10.5c0-4.5,1.7-9.9,6.7-9.9c5.2,0,6.8,5.4,6.8,9.9
	C149.4,96.4,148,102.2,142.6,102.2z M142.6,106.2c8.7,0,14.6-6.1,14.6-14.5c0-8.8-7.1-13.9-14.6-13.9c-7.4,0-14.5,5.1-14.5,13.9
	C128.1,100,134,106.2,142.6,106.2z"/>
<path class="st0" d="M168.1,81.6c2.5-2.6,6-3.8,9.5-3.8c6.5,0,9.6,3.5,9.6,10.3v17.5h-7.1V88.9c0-3.8-1.7-6.3-5.6-6.3
	c-3.6,0-6.4,2.3-6.4,6.8v16.2h-7.1V78.4h7V81.6z"/>
<path class="st0" d="M47.6,102.2c-5.3,0-6.7-5.7-6.7-10.5c0-4.5,1.7-9.9,6.7-9.9c5.2,0,6.8,5.4,6.8,9.9
	C54.4,96.4,53,102.2,47.6,102.2z M47.6,106.2c8.7,0,14.6-6.1,14.6-14.5c0-8.8-7.1-13.9-14.6-13.9c-7.4,0-14.5,5.1-14.5,13.9
	C33.1,100,39,106.2,47.6,106.2z"/>
</svg>
