<?xml version="1.0" encoding="utf-8"?>
<!-- Generator: Adobe Illustrator 19.1.0, SVG Export Plug-In . SVG Version: 6.00 Build 0)  -->
<svg version="1.1" id="Layer_1" xmlns="http://www.w3.org/2000/svg" xmlns:xlink="http://www.w3.org/1999/xlink" x="0px" y="0px"
	 viewBox="0 0 376.7 108.9" style="enable-background:new 0 0 376.7 108.9;" xml:space="preserve">
<style type="text/css">
	.st0{fill:#00467F;}
</style>
<path class="st0" d="M10.1,47.2V9.3h7.4v37.9H10.1z"/>
<path class="st0" d="M28.5,23.3h0.1c1.8-2.4,5.2-3.8,8.3-3.8c3.3,0,6.2,1.4,7.8,3.8c2.2-2.2,5.6-3.8,8.8-3.8c6-0.1,9.1,3.7,9.2,9.9
	v17.8h-7V30.7c0-3.1-1.1-6.4-4.5-6.4c-3.4,0-5.5,2.1-5.5,6.8v16.2h-7V30.7c0-3.8-1.6-6.4-4.6-6.4c-3.3,0-5.4,2.3-5.4,6.9v16h-7V20.1
	h7V23.3z"/>
<path class="st0" d="M80.3,23.8c4,0,6,4.7,6,9.3c0,4.8-1.6,10.4-6.3,10.4c-3.8,0-6.5-3.8-6.5-9.5C73.5,27.8,75.8,23.8,80.3,23.8z
	 M73.5,20.1h-7v40.7h7V43.9c2,2.4,4.7,4,7.9,4c7.5,0,12.3-7.6,12.3-14.8c0-6-3.4-13.6-11.7-13.6c-3.2,0-6.6,1.6-8.4,4.4h-0.1V20.1z"
	/>
<path class="st0" d="M103.8,30.4c-0.1-3.6,1.7-6.9,5.8-6.9c3.5,0,4.9,2.8,4.6,6.9H103.8z M120.8,34.3c0.5-8.1-2.9-14.8-11.1-14.8
	c-7.5,0-13.5,5.3-13.5,13.7c0,8.9,6,14.7,13.9,14.7c3,0,6.8-0.9,10.3-3l-2-3.8c-1.7,1.2-4.5,2.2-7.1,2.2c-4.4,0-7.9-3.8-7.7-8.9
	H120.8z"/>
<path class="st0" d="M131.1,24.9h0.1l1.4-2.1c0.8-1.1,2.4-3.3,4.5-3.3c1.6,0,3.3,0.9,4.8,2.4l-2.6,5c-1.2-0.6-1.9-0.9-3.3-0.9
	c-2.4,0-4.8,2-4.8,7.9v13.4h-7V20.1h7V24.9z"/>
<path class="st0" d="M151.2,20.1v27.1h-7V20.1H151.2z M143.5,12c0-2.1,1.7-4.2,4.1-4.2c2.4,0,4.3,2.1,4.3,4.2c0,2.3-1.6,4.5-4.2,4.5
	C145.2,16.5,143.5,14.3,143.5,12z"/>
<path class="st0" d="M170.2,31.5c0.5,8-3.1,11.5-5.9,11.5c-1.7,0-3.2-1.6-3.2-4c0-3.1,1.7-5.1,5.2-6.2L170.2,31.5z M170.1,43.3
	c0,1.5,0.2,3,0.7,4h7.4c-0.8-1.9-1.1-4.4-1.1-6.6V29.5c0-8.5-6-10.1-10.8-10.1c-3.6,0-6.9,0.9-10.1,3.7l2.3,3.4c1.8-1.6,4-2.8,7-2.8
	c2.3,0,4.4,1.6,4.8,4.1l-6.2,1.9c-6.1,1.8-9.8,4.7-9.8,9.9c0,5,3.4,8.2,7.5,8.2c2.4,0,4.8-1.7,6.8-3.3L170.1,43.3z"/>
<path class="st0" d="M181.5,47.2V7.4h7v39.8H181.5z"/>
<path class="st0" d="M234.8,16.2c-1.8-1-4.8-2.1-7.7-2.1c-7.6,0-13.1,5.5-13.1,14.1c0,9,6.1,14.3,13.3,14.3c2.9,0,5.5-0.8,7.4-1.9
	l2.1,4.7c-2.3,1.4-6.2,2.6-9.8,2.6c-12.8,0-20.9-8.7-20.9-19.8c0-10.4,8-19.4,21-19.4c3.9,0,7.4,1.4,10,2.9L234.8,16.2z"/>
<path class="st0" d="M250.8,43.9c-5,0-6.4-5.7-6.4-10.5c0-4.5,1.6-9.9,6.4-9.9c4.9,0,6.4,5.4,6.4,9.9
	C257.3,38.1,255.9,43.9,250.8,43.9z M250.8,47.9c8.3,0,13.9-6.1,13.9-14.5c0-8.8-6.7-13.9-13.9-13.9c-7.1,0-13.8,5.1-13.8,13.9
	C237,41.7,242.6,47.9,250.8,47.9z"/>
<path class="st0" d="M267.7,47.2V7.4h7v39.8H267.7z"/>
<path class="st0" d="M279.2,47.2V7.4h7v39.8H279.2z"/>
<path class="st0" d="M296.7,30.4c-0.1-3.6,1.7-6.9,5.7-6.9c3.5,0,4.9,2.8,4.6,6.9H296.7z M313.7,34.3c0.5-8.1-2.9-14.8-11.1-14.8
	c-7.5,0-13.5,5.3-13.5,13.7c0,8.9,6,14.7,13.9,14.7c3,0,6.8-0.9,10.3-3l-2-3.8c-1.7,1.2-4.5,2.2-7.1,2.2c-4.4,0-7.9-3.8-7.7-8.9
	H313.7z"/>
<path class="st0" d="M354,30.4c-0.1-3.6,1.7-6.9,5.8-6.9c3.5,0,4.9,2.8,4.6,6.9H354z M371,34.3c0.5-8.1-2.9-14.8-11.1-14.8
	c-7.5,0-13.5,5.3-13.5,13.7c0,8.9,6,14.7,13.9,14.7c3,0,6.8-0.9,10.3-3l-2-3.8c-1.7,1.2-4.5,2.2-7.1,2.2c-4.4,0-7.9-3.8-7.7-8.9H371
	z"/>
<path class="st0" d="M330.1,23.8c4.2,0,6.4,4.4,6.4,9.1c0,5.4-2,10.6-6.7,10.6c-4.1,0-6.1-5.1-6.1-10.4
	C323.7,27.9,325.5,23.8,330.1,23.8z M343.5,20.1h-7v3.3h-0.1c-1.5-2.4-4.6-4-7.9-4c-7.2,0-12.2,6.8-12.2,13.9
	c0,8.7,4.6,14.5,11.6,14.5c4,0,6.8-2.3,8.5-4.6h0.1v3.6c0,6.3-3.6,9.2-8.2,9.2c-3.6,0-6.6-0.7-9.2-2.3l-1.4,4.4
	c3.1,1.6,7.1,2.6,11.1,2.6c7.9,0,14.7-4,14.7-16V20.1z"/>
<path class="st0" d="M10.1,63.5h7.5v32.8h15.8v5.1H10.1V63.5z"/>
<path class="st0" d="M74.5,77.5c2.5-2.6,6-3.8,9.5-3.8c6.5,0,9.6,3.5,9.6,10.3v17.5h-7.1V84.8c0-3.8-1.7-6.3-5.6-6.3
	c-3.6,0-6.4,2.3-6.4,6.8v16.2h-7.1V74.3h7V77.5z"/>
<path class="st0" d="M111.9,78c4.4,0,6.7,4.4,6.7,9.1c0,5.4-2.1,10.6-7.1,10.6c-4.3,0-6.4-5.1-6.4-10.4
	C105.2,82.1,107.1,78,111.9,78z M118.6,101.4h7.1V61.6h-7.1v15.9h-0.1c-1.7-2.4-4.9-3.8-8.5-3.8c-7.4,0-12.7,6.8-12.7,13.9
	c0,8.7,4.8,14.5,12.1,14.5c4.3,0,7.2-2.3,9-4.6h0.1V101.4z"/>
<path class="st0" d="M144,98c-5.3,0-6.7-5.7-6.7-10.5c0-4.5,1.7-9.9,6.7-9.9c5.2,0,6.8,5.4,6.8,9.9C150.8,92.3,149.4,98,144,98z
	 M144,102.1c8.7,0,14.6-6.1,14.6-14.5c0-8.8-7.1-13.9-14.6-13.9c-7.4,0-14.5,5.1-14.5,13.9C129.5,95.9,135.3,102.1,144,102.1z"/>
<path class="st0" d="M169.4,77.5c2.5-2.6,6-3.8,9.5-3.8c6.5,0,9.6,3.5,9.6,10.3v17.5h-7.1V84.8c0-3.8-1.7-6.3-5.6-6.3
	c-3.6,0-6.4,2.3-6.4,6.8v16.2h-7.1V74.3h7V77.5z"/>
<path class="st0" d="M49,98c-5.3,0-6.7-5.7-6.7-10.5c0-4.5,1.7-9.9,6.7-9.9c5.2,0,6.8,5.4,6.8,9.9C55.8,92.3,54.4,98,49,98z
	 M49,102.1c8.7,0,14.6-6.1,14.6-14.5c0-8.8-7.1-13.9-14.6-13.9c-7.4,0-14.5,5.1-14.5,13.9C34.5,95.9,40.3,102.1,49,102.1z"/>
</svg>
